<?xml version="1.0" encoding="utf-8"?>
<!-- Generator: Adobe Illustrator 21.1.0, SVG Export Plug-In . SVG Version: 6.00 Build 0)  -->
<svg version="1.1" id="Layer_1" xmlns="http://www.w3.org/2000/svg" xmlns:xlink="http://www.w3.org/1999/xlink" x="0px" y="0px"
	 width="80px" height="80px" viewBox="0 0 80 80" style="enable-background:new 0 0 80 80;" xml:space="preserve">
<style type="text/css">
	.st0{fill:none;}
	.st1{fill-rule:evenodd;clip-rule:evenodd;fill:#00BFB3;}
	.st2{fill-rule:evenodd;clip-rule:evenodd;fill:#0279A0;}
	.st3{fill-rule:evenodd;clip-rule:evenodd;fill:#14A7DF;}
	.st4{fill-rule:evenodd;clip-rule:evenodd;fill:#FFFFFF;}
</style>
<rect class="st0" width="80" height="80"/>
<title>icons-masterfilefinal</title>
<g>
	<path class="st1" d="M52,12H26c-1.1,0-2,0.9-2,2v52c0,1.1,0.9,2,2,2h40c1.1,0,2-0.9,2-2V28l-11.7-6.2L52,12z"/>
	<path class="st2" d="M52,12v14c0,1.1,0.9,2,2,2h14L52,12z"/>
	<path class="st3" d="M39.5,38h-25c-1.4,0-2.5,1-2.5,2.3v13.5c0,1.2,1.1,2.3,2.5,2.3h25c1.4,0,2.5-1,2.5-2.3V40.3
		C42,39,40.9,38,39.5,38"/>
	<polygon class="st4" points="21.7,50.6 17.7,50.6 17.7,43.4 18.6,43.4 18.6,49.8 21.7,49.8 	"/>
	<path class="st4" d="M36.3,50.3c-0.4,0.1-0.8,0.2-1.2,0.3c-0.4,0.1-0.8,0.1-1.4,0.1c-1.1,0-1.9-0.3-2.5-1c-0.6-0.6-0.9-1.5-0.9-2.7
		c0-0.7,0.1-1.4,0.4-1.9c0.3-0.6,0.7-1,1.3-1.3c0.6-0.3,1.2-0.4,2-0.4c0.8,0,1.5,0.1,2.1,0.4l-0.3,0.7c-0.6-0.3-1.3-0.4-1.9-0.4
		c-0.9,0-1.5,0.3-2,0.8c-0.5,0.5-0.7,1.2-0.7,2.2c0,1,0.2,1.7,0.7,2.2c0.5,0.5,1.2,0.7,2.1,0.7c0.5,0,1-0.1,1.5-0.2v-2.2h-1.6v-0.7
		h2.4V50.3z"/>
	<path class="st4" d="M28.2,44.3c-0.6-0.7-1.4-1-2.4-1c-1.1,0-1.9,0.3-2.4,1c-0.6,0.6-0.9,1.5-0.9,2.7c0,1.2,0.3,2.1,0.9,2.7
		c0.6,0.6,1.4,1,2.4,1c1,0,1.8-0.3,2.4-1c0.6-0.7,0.9-1.6,0.9-2.7C29.1,45.8,28.8,45,28.2,44.3 M27.6,49.2c-0.4,0.5-1,0.7-1.8,0.7
		c-0.8,0-1.4-0.2-1.8-0.8c-0.4-0.5-0.6-1.2-0.6-2.2c0-1,0.2-1.7,0.6-2.2c0.4-0.5,1-0.7,1.8-0.7c0.8,0,1.4,0.2,1.8,0.7
		c0.4,0.5,0.6,1.2,0.6,2.2C28.2,48,28,48.7,27.6,49.2"/>
</g>
</svg>
